<?xml version="1.0" encoding="iso-8859-1"?>
<!-- Generator: Adobe Illustrator 19.0.0, SVG Export Plug-In . SVG Version: 6.00 Build 0)  -->
<svg version="1.1" id="Layer_1" xmlns="http://www.w3.org/2000/svg" xmlns:xlink="http://www.w3.org/1999/xlink" x="0px" y="0px"
	 viewBox="0 0 491.52 491.52" style="enable-background:new 0 0 491.52 491.52;" xml:space="preserve">
<path style="fill:#64798A;" d="M469.453,0H22.067C9.88,0,0,9.88,0,22.067v447.386c0,12.188,9.88,22.067,22.067,22.067h447.387
	c12.185,0,22.067-9.88,22.067-22.067V22.067C491.52,9.88,481.639,0,469.453,0z"/>
<g>
	<rect x="35.748" y="91.361" style="fill:#FFFFFF;" width="420.045" height="364.39"/>
	<rect x="35.748" y="31.703" style="fill:#FFFFFF;" width="300.339" height="25.405"/>
</g>
<rect x="35.748" y="442.317" style="fill:#EBF0F3;" width="420.045" height="13.435"/>
<circle style="fill:#FCD462;" cx="363.827" cy="44.406" r="12.703"/>
<circle style="fill:#44C4A1;" cx="403.456" cy="44.406" r="12.703"/>
<circle style="fill:#E56353;" cx="443.085" cy="44.406" r="12.703"/>
<rect x="58.153" y="114.191" style="fill:#FCD462;" width="112.287" height="102.758"/>
<rect x="58.153" y="202.112" style="fill:#F6C358;" width="112.287" height="14.828"/>
<g>
	<rect x="209.628" y="114.785" style="fill:#E1E6E9;" width="220.723" height="17.874"/>
	<rect x="209.628" y="160.512" style="fill:#E1E6E9;" width="220.723" height="17.874"/>
	<rect x="209.628" y="206.234" style="fill:#E1E6E9;" width="220.723" height="17.874"/>
	<rect x="58.158" y="251.955" style="fill:#E1E6E9;" width="372.224" height="17.874"/>
	<rect x="58.158" y="297.677" style="fill:#E1E6E9;" width="372.224" height="17.874"/>
	<rect x="58.158" y="343.398" style="fill:#E1E6E9;" width="372.224" height="17.874"/>
	<rect x="58.158" y="389.12" style="fill:#E1E6E9;" width="256.358" height="17.874"/>
</g>
<rect x="305.505" y="190.871" transform="matrix(-0.7071 -0.7071 0.7071 -0.7071 332.3915 726.5645)" style="fill:#44C4A1;" width="22.334" height="207.141"/>
<rect x="321.315" y="206.644" transform="matrix(-0.7071 -0.7071 0.7071 -0.7071 348.2273 764.6695)" style="fill:#3EA69B;" width="22.334" height="207.141"/>
<rect x="337.123" y="222.41" transform="matrix(-0.7071 -0.7071 0.7071 -0.7071 364.0652 802.7621)" style="fill:#31978C;" width="22.334" height="207.141"/>
<path style="fill:#64798A;" d="M220.328,429.271l25.814-9.127c-1.196-5.602-3.947-10.939-8.3-15.292
	c-4.352-4.352-9.689-7.104-15.291-8.299l-9.127,25.815C211.909,426.655,216.039,430.787,220.328,429.271z"/>
<path style="fill:#FCD462;" d="M235.559,359.763l-13.007,36.79c3.533,0.754,6.958,2.131,10.1,4.133l18.697-25.132L235.559,359.763z"
	/>
<path style="fill:#DC8744;" d="M282.931,407.136l-15.791-15.79l-25.132,18.697c2.003,3.142,3.38,6.568,4.133,10.101L282.931,407.136
	z"/>
<path style="fill:#F6C358;" d="M251.349,375.554l-18.697,25.132c1.84,1.173,3.583,2.559,5.19,4.166
	c1.608,1.608,2.993,3.35,4.166,5.191l25.132-18.697L251.349,375.554z"/>
<rect x="368.807" y="234.872" transform="matrix(-0.7071 -0.7071 0.7071 -0.7071 516.781 694.9456)" style="fill:#FCD462;" width="67.021" height="11.146"/>
<path style="fill:#E56353;" d="M427.525,262.543l-47.374-47.374l30.875-30.874c6.621-6.621,53.994,40.751,47.373,47.373
	L427.525,262.543z"/>
<g>
</g>
<g>
</g>
<g>
</g>
<g>
</g>
<g>
</g>
<g>
</g>
<g>
</g>
<g>
</g>
<g>
</g>
<g>
</g>
<g>
</g>
<g>
</g>
<g>
</g>
<g>
</g>
<g>
</g>
</svg>
