<svg enable-background="new 0 0 509.287 509.287" viewBox="0 0 509.287 509.287" xmlns="http://www.w3.org/2000/svg"><circle cx="254.644" cy="254.644" fill="#71d456" r="254.644"/><path d="m305.191 316.287h50.521v28.143h-50.521z" fill="#646b79" transform="matrix(-.7071 .7071 -.7071 -.7071 797.7154 330.2928)"/><circle cx="199.714" cy="199.714" fill="#4f5565" r="176.996"/><circle cx="199.714" cy="199.714" fill="#fbd303" r="152.922"/><circle cx="199.714" cy="199.714" fill="#f1f3f7" r="135.629"/><path d="m412.313 472.668 10.172 11.868c2.713 3.052 7.46 3.391 10.511.339l51.539-51.539c3.052-3.052 2.713-7.799-.339-10.511l-11.868-10.172z" fill="#4f5565"/><path d="m368.911 321.102c-2.713-2.374-7.121-2.374-9.833.339l-37.637 37.637c-2.713 2.713-2.713 6.781-.339 9.833l3.391 3.73 48.148-48.148z" fill="#4f5565"/><path d="m324.493 372.641 87.82 100.027 60.355-60.355-100.027-87.82z" fill="#f0582f"/><path d="m101.044 262.442h197.001v12.207h-197.001z" fill="#646b79"/><path d="m114.946 200.731h30.177v50.861h-30.177z" fill="#4b5aa7"/><path d="m161.399 144.784h30.177v107.147h-30.177z" fill="#4485c5"/><path d="m207.852 182.76h30.177v68.832h-30.177z" fill="#71d456"/><path d="m254.305 113.589h30.177v138.003h-30.177z" fill="#f0582f"/></svg>